#!OML:ASF E:/inclinewalkrobotboard/Project1/Captureday1/Session1/subject1.ASF
:FULLY-SPECIFIED
:DEGREES
213
root 0 0 0 -9.71244920349009 -48.72294145746186 -1.0250589218458128
lowerback 1.0733884168899728 -1.32476572026882 0.2957188423555923
upperback -2.5503723961014146 -1.579502273171884 0.5020250664815956
thorax -3.1679185739720035 -0.7790320363756713 0.665987526675097
lowerneck -16.680361771480577 -2.0056520648010165 -7.642702222545836
upperneck 0.12874322590988818 -2.5217422189173364 7.06635012579475
head 3.232794468755902 -0.9706668005600364 3.2635839760607843
rclavicle -1.0053299331166823E-14 -2.0008045339633537E-16
rhumerus 2.6209283565749733 -12.773984876953898 -67.48843052071418
rradius 18.626959480745377
rwrist 57.74678642351181
rhand -7.474511395564399 21.841173543733046
rfingers 7.1250199999999095
rthumb 18.423284182666702 -7.855022929872163
lclavicle -5.662828082326655E-15 5.858637235747706E-15
lhumerus -26.864777713451453 -0.30793866651475454 80.7415822029702
lradius 34.20866366622058
lwrist -39.77947308996066
lhand -9.918578334183987 14.380300020532218
lfingers 7.02960673264375
lthumb 15.70446943523004 71.15106060163386
rfemur -0.7648236785161231 7.947591654393264 35.74209227621635
rtibia 24.084755102620992
rfoot -16.192170730508806 -5.3223451861238935
rtoes 12.0307262173227
lfemur 15.12332900411955 -3.1265065402991237 -30.028701709433548
ltibia 17.499418024649582
lfoot -17.127946769669048 -2.193717289152181
ltoes -6.806292003670014
214
root 0 0 0 -9.741330152384291 -48.379407250101096 -1.0706130333926724
lowerback 0.9758542759539637 -1.3218013641418414 0.3287320402004288
upperback -2.570885859452957 -1.5678866122049904 0.4947542548299536
thorax -3.1371956211568452 -0.7729881115596626 0.6406677711423432
lowerneck -16.652526200493593 -1.9991063223618997 -7.616030704541362
upperneck 0.1046492903777505 -2.512230158086318 6.98209207742044
head 3.223460134754884 -0.9663353653293676 3.2323773431831007
rclavicle -1.007528299793884E-14 -1.9174872160852948E-16
rhumerus 2.61723179758868 -12.759397384412656 -67.49752896337014
rradius 18.597343002619624
rwrist 57.77967074683218
rhand -7.475877284171663 21.847176890142176
rfingers 7.1250199999999095
rthumb 18.42212392353599 -7.849678153976029
lclavicle -5.745605283961668E-15 5.810266265376589E-15
lhumerus -27.057503619099847 -0.3136466706236831 80.84061787392196
lradius 33.788800463681774
lwrist -39.90683704949933
lhand -9.909146492287883 14.387253245827711
lfingers 7.030644341966498
lthumb 15.717577314882664 70.16164305567389
rfemur -0.48127257623202624 7.941168642715311 35.81912164011866
rtibia 24.124037618053887
rfoot -16.199919042130645 -5.257556667475577
rtoes 11.863584249732893
lfemur 15.694711468318536 -3.2280658537135656 -29.895842003227195
ltibia 17.419889941048925
lfoot -16.567324671188878 -2.689817992207992
ltoes -7.675451937824883
215
root 0 0 0 -9.764289542164972 -47.991134654890004 -1.1166254500650286
lowerback 0.8803730322267853 -1.3200188090375757 0.36171535980344016
upperback -2.589463521960995 -1.5577755415593937 0.48816597997157773
thorax -3.1057152545303737 -0.767677960308442 0.6161902031614717
lowerneck -16.618905476941396 -1.9903422080027897 -7.588362424408555
upperneck 0.08443848922565955 -2.4995762932417054 6.890872126137728
head 3.2142116440491026 -0.9605520985527969 3.198812077885023
rclavicle -1.0104115803118436E-14 -1.8157621466107373E-16
rhumerus 2.603171774043381 -12.73871404447567 -67.51447622749457
rradius 18.57519954919595
rwrist 57.80910684962812
rhand -7.477851696156382 21.851987070723627
rfingers 7.1250199999999095
rthumb 18.420398766498476 -7.845364601511303
lclavicle -5.864254739107602E-15 5.742182505711048E-15
lhumerus -27.259052704321505 -0.332746103787148 80.93970220784024
lradius 33.36484852045961
lwrist -40.02170303479387
lhand -9.87281515784281 14.399793061315329
lfingers 7.0316743545390565
lthumb 15.75649431950722 69.16451494729901
rfemur -0.2866943193608833 7.927525040022715 35.86612442804606
rtibia 24.190388437839093
rfoot -16.101090436630024 -5.182996856672549
rtoes 11.786414210720059
lfemur 16.281721812685348 -3.344026891928973 -29.730164531224652
ltibia 17.392741614426292
lfoot -15.900972557404076 -3.2468014066236073
ltoes -8.600603878435134
216
root 0 0 0 -10.170786468854356 -52.57770301063367 -0.9748719743115422
lowerback 2.155884465204159 -1.4383224468910396 0.15144974031044467
upperback -2.350305340328348 -1.7997639564916645 0.5667866318802753
thorax -3.5344312843773853 -0.8937469467386536 0.8053596878694045
lowerneck -16.867038554398345 -2.33178746597846 -7.74506892550375
upperneck -0.1869047893107325 -2.9673124142758 8.43695736866368
head 3.1562326501953173 -1.2020777033392984 3.7218779907528274
rclavicle -1.0481237285926574E-14 -2.657298732377477E-16
rhumerus 2.361673194787923 -13.223395447976136 -68.21115460411286
rradius 18.845231615039914
rwrist 58.46128079560607
rhand -7.712800546980864 22.224730442148967
rfingers 7.1250199999999095
rthumb 18.199923438151945 -7.47559614291438
lclavicle -5.227252797393111E-15 4.113311280657963E-15
lhumerus -26.552695186267655 -1.9119294363023833 81.46415038643937
lradius 32.4569209108689
lwrist -41.46996348077276
lhand -9.380803052206282 14.275834115368767
lfingers 7.023437927610749
lthumb 16.186525679028506 72.05567099701037
rfemur 4.386391981463838 8.318377939386597 37.1061885419194
rtibia 23.30934907114444
rfoot -17.831093713205966 -4.702291143066955
rtoes 9.0268132271918
lfemur 17.181298045248475 -3.3199753201962636 -29.657125921536824
ltibia 18.064938223638247
lfoot -15.8619168005493 -3.363073727832216
ltoes -9.108204031764252
217
root 0 0 0 -9.382232924484672 -43.12779788067793 -1.3016963165980393
lowerback 0.06755942601898646 -1.2776142487296216 0.47530666243525843
upperback -2.715391150164232 -1.4480284027542343 0.3918712069894469
thorax -2.8107521958321566 -0.7089888174187939 0.4601172127818489
lowerneck -16.312763404932106 -1.7313107276356021 -7.359963080151049
upperneck 0.5454323211907184 -2.148645196944218 5.67130734331138
head 3.3220274133045873 -0.7893138098052261 2.7791423449457175
rclavicle -1.0169269779111697E-14 5.7238445920468644E-18
rhumerus 2.7950329524835396 -12.801255980237533 -67.28562901026716
rradius 18.676126411956353
rwrist 57.70286674197109
rhand -7.5411770978755115 21.820874039359985
rfingers 7.12501999999991
rthumb 18.35986371517105 -7.880840358836899
lclavicle -5.706194095438501E-15 6.182224254958315E-15
lhumerus -27.541301854605678 0.42281556304359924 80.76123313944983
lradius 32.30349675487424
lwrist -40.35364087817949
lhand -9.920501975204045 14.348941360126915
lfingers 7.035625808942724
lthumb 15.725598050599288 66.33777053197126
rfemur -0.28244260659440457 7.840724016448673 35.75034191176199
rtibia 24.659315460226196
rfoot -15.013637202083704 -4.9136510702211575
rtoes 12.126372723260035
lfemur 18.37169634072398 -3.8127373314065798 -29.053177473158556
ltibia 17.4819294581278
lfoot -13.152317261203745 -5.4015902680092225
ltoes -11.8880438558875
